<?xml version="1.0" encoding="utf-8"?>
<!-- Generator: Adobe Illustrator 28.1.0, SVG Export Plug-In . SVG Version: 6.00 Build 0)  -->
<svg version="1.1" xmlns="http://www.w3.org/2000/svg" xmlns:xlink="http://www.w3.org/1999/xlink" x="0px" y="0px"
	 viewBox="0 0 1190.55 841.89" style="enable-background:new 0 0 1190.55 841.89;" xml:space="preserve">
<style type="text/css">
	.st0{fill-rule:evenodd;clip-rule:evenodd;}
</style>
<g id="robi_00000157275310514635202930000016197229758061103023_">
	<g>
		<g>
			<path d="M538.79,677.99c-24.4,5.43-43.97,3.6-58.7-5.49c-14.73-9.09-24.73-25.49-30.01-49.2c-0.96-4.32-1.93-8.66-2.9-13.01
				c-0.97-4.35-1.9-8.67-2.78-12.94c-5.54-25.78-3.69-46.38,5.55-61.81s25.96-25.84,50.18-31.23c23.77-5.29,43.18-2.89,58.23,7.2
				c15.05,10.09,25.43,27.94,31.13,53.55c1.08,4.83,2.19,9.82,3.33,14.97s2.24,10.07,3.29,14.78c2.52,11.31,1.99,20.02-1.59,26.12
				c-3.58,6.1-9.59,10.09-18.04,11.97c-9.21,2.05-16.68,1.09-22.4-2.87c-5.72-3.96-9.69-10.93-11.91-20.91l19.7-4.98
				c1.03,4.64,2.5,7.96,4.42,9.97c1.91,2.01,4.3,2.69,7.16,2.06c2.99-0.67,4.92-2.23,5.81-4.69c0.88-2.46,0.8-6.08-0.26-10.85
				c-1.17-5.27-2.34-10.53-3.51-15.78c-1.17-5.24-2.34-10.53-3.53-15.87c-4.47-20.08-12.46-34.11-23.97-42.09
				c-11.51-7.97-26.23-9.97-44.15-5.98c-18.37,4.09-31.01,12.15-37.93,24.2c-6.92,12.04-8.24,28.16-3.95,48.35
				c0.88,4.27,1.81,8.57,2.77,12.89c0.96,4.32,1.93,8.67,2.91,13.06c4,17.99,11.59,30.44,22.77,37.35
				c11.18,6.92,26.04,8.31,44.6,4.18l28.41-6.32l3.8,17.06L538.79,677.99z M526.14,644.09c-22.31,4.96-36.63-6.79-42.96-35.26
				l-3.65-16.4c-6.34-28.47,3.17-45.53,28.53-51.17c25.29-5.63,41.12,5.82,47.47,34.36l6.85,30.79l-12.69,8.62
				c0.48,7.83-1.25,14.17-5.17,19.01C540.59,638.89,534.47,642.24,526.14,644.09z M526.62,625.57c13.09-2.91,17.83-12.5,14.21-28.77
				l-4.05-18.21c-3.58-16.08-11.91-22.66-25-19.75c-12.9,2.87-17.55,12.38-13.96,28.52l4.03,18.11
				C505.46,621.75,513.72,628.45,526.62,625.57z"/>
		</g>
		<g>
			<g>
				<path d="M635.12,514.71c0.82,12.62,0.57,25.89-2.24,38.25c-0.84,3.71-1.88,7.48-3.78,10.8c-2.22,3.87-5.02,4.9-9.04,7.04
					c-9.23,4.9-18.48,9.74-27.78,14.52c-6.87,3.53-0.81,13.89,6.06,10.36c10.42-5.35,20.83-10.74,31.14-16.31
					c8.28-4.47,12.22-12.41,14.51-21.27c3.58-13.9,4.06-29.09,3.13-43.38C646.62,507.04,634.62,506.99,635.12,514.71L635.12,514.71z
					"/>
			</g>
		</g>
		<g>
			<g>
				<path d="M502.44,678.44c-6.98,23.15-13.96,46.3-20.94,69.45c-2.23,7.41,9.34,10.58,11.57,3.19
					c6.98-23.15,13.96-46.3,20.94-69.45C516.24,674.22,504.66,671.05,502.44,678.44L502.44,678.44z"/>
			</g>
		</g>
		<g>
			<g>
				<path d="M535.6,676.48c6.98,23.15,13.96,46.3,20.94,69.45c2.22,7.37,13.81,4.23,11.57-3.19c-6.98-23.15-13.96-46.3-20.94-69.45
					C544.95,665.91,533.36,669.05,535.6,676.48L535.6,676.48z"/>
			</g>
		</g>
		
			<ellipse transform="matrix(0.9761 -0.2172 0.2172 0.9761 -152.6461 121.9037)" class="st0" cx="478.11" cy="755.2" rx="13.62" ry="5.72"/>
		
			<ellipse transform="matrix(0.3474 -0.9377 0.9377 0.3474 -330.8877 1023.5369)" class="st0" cx="569.88" cy="749.48" rx="5.72" ry="13.62"/>
		<path class="st0" d="M639.68,511.6L639.68,511.6c-0.64,0.93-1.91,1.16-2.84,0.53l-5.16-3.54c-0.93-0.64-1.16-1.91-0.53-2.84l0,0
			c0.64-0.93,1.91-1.16,2.84-0.53l5.16,3.54C640.08,509.4,640.32,510.67,639.68,511.6z"/>
		<path class="st0" d="M642.15,511.82L642.15,511.82c-0.97-0.56-1.31-1.82-0.75-2.79l3.13-5.42c0.56-0.97,1.82-1.31,2.79-0.75l0,0
			c0.97,0.56,1.31,1.82,0.75,2.79l-3.13,5.42C644.37,512.04,643.12,512.38,642.15,511.82z"/>
		<path class="st0" d="M640.95,512.22L640.95,512.22c-1.01,0.5-2.24,0.08-2.74-0.93l-3.61-7.31c-0.5-1.01-0.08-2.24,0.93-2.74l0,0
			c1.01-0.5,2.24-0.08,2.74,0.93l3.61,7.31C642.37,510.49,641.95,511.72,640.95,512.22z"/>
		<path class="st0" d="M639.77,512.73L639.77,512.73c-1.1-0.22-1.82-1.3-1.6-2.4l1.6-7.99c0.22-1.1,1.3-1.82,2.4-1.6l0,0
			c1.1,0.22,1.82,1.3,1.6,2.4l-1.6,7.99C641.95,512.23,640.87,512.95,639.77,512.73z"/>
		<path class="st0" d="M647.47,509.88c0,3.43-3.13,6.22-6.98,6.22c-3.86,0-6.98-2.78-6.98-6.22c0-3.43,3.13-6.21,6.98-6.21
			C644.34,503.67,647.47,506.45,647.47,509.88z"/>
		<path class="st0" d="M406.15,702c0,3.43-3.13,6.22-6.98,6.22s-6.98-2.78-6.98-6.22c0-3.43,3.13-6.21,6.98-6.21
			S406.15,698.56,406.15,702z"/>
		<path class="st0" d="M398.57,700.3L398.57,700.3c0.79,0.79,0.79,2.09,0,2.89l-4.42,4.42c-0.79,0.79-2.09,0.79-2.89,0l0,0
			c-0.79-0.79-0.79-2.09,0-2.89l4.42-4.42C396.47,699.51,397.77,699.51,398.57,700.3z"/>
		<path class="st0" d="M399.44,700.39L399.44,700.39c1.07,0.34,1.67,1.49,1.34,2.56l-1.87,5.97c-0.34,1.07-1.49,1.67-2.56,1.34l0,0
			c-1.07-0.34-1.67-1.49-1.34-2.56l1.87-5.97C397.21,700.65,398.37,700.05,399.44,700.39z"/>
		<path class="st0" d="M402,700.15L402,700.15c1.12,0,2.04,0.92,2.04,2.04v6.26c0,1.12-0.92,2.04-2.04,2.04l0,0
			c-1.12,0-2.04-0.92-2.04-2.04v-6.26C399.96,701.07,400.87,700.15,402,700.15z"/>
		<path class="st0" d="M401.02,698.87L401.02,698.87c0.91-0.66,2.2-0.45,2.85,0.47l3.65,5.08c0.66,0.91,0.45,2.2-0.47,2.85l0,0
			c-0.91,0.66-2.19,0.45-2.85-0.47l-3.65-5.08C399.9,700.81,400.11,699.52,401.02,698.87z"/>
		<g>
			<g>
				<path d="M448.69,618.39c-13.81,5.16-27.66,11.88-39.23,21.08c-7.07,5.62-12.55,12.32-13.34,21.55
					c-1.03,11.97-1.54,24.01-2.17,36c-0.4,7.72,11.6,7.7,12,0c0.54-10.37,1.16-20.73,1.84-31.09c0.28-4.29,0.11-7.2,2.71-10.77
					c2.13-2.91,5.03-5.39,7.89-7.55c10.02-7.58,22.34-13.5,33.49-17.66C459.05,627.28,455.95,615.68,448.69,618.39L448.69,618.39z"
					/>
			</g>
		</g>
	</g>
</g>
<g id="Layer_26">
</g>
</svg>
