<?xml version="1.0" encoding="UTF-8"?>
<svg id="Layer_26" data-name="Layer 26" xmlns="http://www.w3.org/2000/svg" viewBox="0 0 213.68 228.76">
  <defs>
    <style>
      .cls-1 {
        fill-rule: evenodd;
      }

      .cls-1, .cls-2 {
        stroke-width: 0px;
      }
    </style>
  </defs>
  <text/>
  <g>
    <g>
      <g>
        <g>
          <path class="cls-1" d="M15.89,184.03c-.42,3.41-3.86,5.79-7.68,5.32-3.83-.47-6.59-3.61-6.18-7.02.42-3.41,3.86-5.79,7.68-5.32s6.59,3.61,6.18,7.02Z"/>
          <rect class="cls-2" x="2.46" y="179.44" width="4.09" height="10.34" rx="2.04" ry="2.04" transform="translate(-138.12 301.92) rotate(-128.04)"/>
          <rect class="cls-2" x="5.25" y="181.16" width="4.09" height="10.34" rx="2.04" ry="2.04" transform="translate(-62.93 359.07) rotate(-155.63)"/>
          <rect class="cls-2" x="9.33" y="181.66" width="4.09" height="10.34" rx="2.04" ry="2.04" transform="translate(.01 373.65) rotate(-173.04)"/>
        </g>
        <rect class="cls-2" x="11.63" y="179.66" width="4.09" height="10.34" rx="2.04" ry="2.04" transform="translate(114.56 340.31) rotate(151.25)"/>
      </g>
      <path class="cls-2" d="M45.39,115.12c-10.12,1.91-21.12,6.9-27.96,14.73-6.64,7.6-7.33,17.29-9.03,26.86-1.31,7.4-2.6,14.81-3.84,22.22-1.26,7.55,10.3,10.8,11.57,3.19.99-5.94,2.02-11.88,3.06-17.81.98-5.58,1.96-11.17,3-16.74.65-3.45,1.45-6.47,3.72-9.24,5.33-6.5,14.57-10.11,22.66-11.64,7.58-1.43,4.37-13-3.19-11.57h0Z"/>
    </g>
    <g>
      <g>
        <g>
          <path class="cls-1" d="M197.79,187.23c.42,3.41,3.86,5.79,7.68,5.32s6.59-3.61,6.18-7.02-3.86-5.79-7.68-5.32c-3.83.47-6.59,3.61-6.18,7.02Z"/>
          <rect class="cls-2" x="207.14" y="182.65" width="4.09" height="10.34" rx="2.04" ry="2.04" transform="translate(-67.64 236.84) rotate(-51.96)"/>
          <rect class="cls-2" x="204.35" y="184.36" width="4.09" height="10.34" rx="2.04" ry="2.04" transform="translate(-59.81 102.03) rotate(-24.37)"/>
          <rect class="cls-2" x="200.27" y="184.86" width="4.09" height="10.34" rx="2.04" ry="2.04" transform="translate(-21.54 25.92) rotate(-6.96)"/>
        </g>
        <rect class="cls-2" x="197.97" y="182.86" width="4.09" height="10.34" rx="2.04" ry="2.04" transform="translate(115.1 -73.02) rotate(28.75)"/>
      </g>
      <path class="cls-2" d="M165.1,129.89c8.09,1.53,17.33,5.15,22.66,11.64,2.03,2.47,2.94,5.16,3.54,8.26,1.08,5.6,2.04,11.23,3.03,16.85,1.09,6.22,2.17,12.45,3.21,18.68,1.27,7.6,12.84,4.38,11.57-3.19-1.19-7.11-2.42-14.22-3.68-21.32-1.74-9.85-2.38-19.92-9.19-27.77-6.8-7.84-17.86-12.82-27.96-14.73-7.55-1.43-10.78,10.14-3.19,11.57h0Z"/>
    </g>
    <path class="cls-2" d="M41.85,151.83h129.27v20.63H41.85v-20.63ZM49.05,81.15h129.27v20.63H49.05v-20.63ZM57.96,215.55l30.27-177.49h19.9l-30.27,177.49h-19.9ZM109.72,215.55l30.27-177.49h19.9l-30.27,177.49h-19.9Z"/>
    <ellipse class="cls-2" cx="66.49" cy="217.47" rx="15.66" ry="8.73" transform="translate(-83.79 46.8) rotate(-24.37)"/>
    <ellipse class="cls-2" cx="117.57" cy="218.51" rx="15.66" ry="8.73" transform="translate(-79.68 67.96) rotate(-24.37)"/>
  </g>
</svg>